<?xml version="1.0" standalone="no"?>
<!DOCTYPE svg PUBLIC "-//W3C//DTD SVG 1.1//EN" "http://www.w3.org/Graphics/SVG/1.1/DTD/svg11.dtd">
<svg xmlns="http://www.w3.org/2000/svg" width="366" height="377" viewBox="0 0 366 377" fill="none">
<g clip-path="url(#clip0_104_26)">
<path d="M109 200.5C109 230.047 85.3757 254 55 254C24.6243 254 0 230.047 0 200.5C0 170.953 24.6243 147 55 147C85.3757 147 109 170.953 109 200.5Z" fill="#0059FF"/>
<path d="M3 200C1.34314 200 -0.0045579 198.656 0.0436107 197C0.829623 169.975 12.2122 144.217 31.9254 125.047C51.6587 105.856 78.1792 94.7843 106 94.0401C107.656 93.9958 109 95.3432 109 97V197C109 198.657 107.657 200 106 200H3Z" fill="#0059FF"/>
</g>
<g clip-path="url(#clip1_104_26)">
<path d="M193.679 267.175C223.226 267.223 247.14 290.887 247.09 321.263C247.04 351.638 223.047 376.223 193.5 376.175C163.953 376.126 140.04 351.463 140.09 321.087C140.14 290.711 164.132 267.126 193.679 267.175Z" fill="#0059FF"/>
<path d="M193.005 373.174C193.002 374.831 191.656 376.176 190 376.125C162.976 375.295 137.237 363.87 118.099 344.125C98.9413 324.361 87.9126 297.822 87.2142 270C87.1726 268.344 88.5221 267.002 90.179 267.005L190.179 267.169C191.836 267.172 193.177 268.517 193.174 270.174L193.005 373.174Z" fill="#0059FF"/>
</g>
<g clip-path="url(#clip2_104_26)">
<path d="M257 171.5C257 141.953 280.624 118 311 118C341.376 118 366 141.953 366 171.5C366 201.047 341.376 225 311 225C280.624 225 257 201.047 257 171.5Z" fill="#0059FF"/>
<path d="M363 172C364.657 172 366.005 173.344 365.956 175C365.17 202.025 353.788 227.783 334.075 246.953C314.341 266.144 287.821 277.216 260 277.96C258.344 278.004 257 276.657 257 275V175C257 173.343 258.343 172 260 172H363Z" fill="#0059FF"/>
</g>
<g clip-path="url(#clip3_104_26)">
<path d="M174.5 109C144.953 109 121 85.3757 121 55C121 24.6243 144.953 0 174.5 0C204.047 0 228 24.6243 228 55C228 85.3757 204.047 109 174.5 109Z" fill="#0059FF"/>
<path d="M175 3C175 1.34314 176.344 -0.0045579 178 0.0436107C205.025 0.829623 230.783 12.2122 249.953 31.9254C269.144 51.6587 280.216 78.1792 280.96 106C281.004 107.656 279.657 109 278 109L178 109C176.343 109 175 107.657 175 106V3Z" fill="#0059FF"/>
</g>
<defs>
<clipPath id="clip0_104_26">
<rect width="109" height="160" fill="white" transform="translate(0 94)"/>
</clipPath>
<clipPath id="clip1_104_26">
<rect width="109" height="160" fill="white" transform="translate(87 376) rotate(-89.9059)"/>
</clipPath>
<clipPath id="clip2_104_26">
<rect width="109" height="160" fill="white" transform="translate(366 278) rotate(-180)"/>
</clipPath>
<clipPath id="clip3_104_26">
<rect width="109" height="160" fill="white" transform="translate(281) rotate(90)"/>
</clipPath>
</defs>
</svg>